<svg width="796" height="450" viewBox="0 0 796 450" fill="none" xmlns="http://www.w3.org/2000/svg">
<path d="M21.5199 88.2515C18.4482 94.484 13.4655 97.1531 13.0443 102.354C12.4797 109.289 11.5729 108.301 10.164 109.688C5.76435 113.989 4.04828 118.79 2.37819 123.878C1.45853 126.682 2.83617 130.658 3.06425 134.145C3.33647 138.338 2.63753 141.99 3.45602 144.225C5.49213 149.782 13.9989 140.029 15.7978 143.359C14.9995 147.152 18.016 139.23 23.9202 142.246C24.0342 143.882 28.6564 147.814 32.4932 147.627C35.5538 147.479 37.8566 143.182 38.8259 144.165C41.412 145.756 49.126 148.61 49.8305 147.783C46.7129 151.477 34.7151 159.178 38.5059 161.545C39.775 161.602 39.8743 165.556 40.6818 165.688C47.1874 166.755 39.1018 164.541 46.7515 166.06C45.5008 169.717 52.6741 168.402 53.8623 172.616C53.4613 175.461 51.3847 170.338 50.408 173.505C47.5295 176.665 48.3351 172.824 47.0807 172.856C44.6492 172.918 47.044 176.631 44.2666 175.082C42.843 174.289 45.865 168.526 42.1551 168.898C41.2446 168.988 42.9331 171.481 40.6192 171.89C38.7799 172.214 34.9487 170.009 32.655 170.823C30.5601 171.428 26.5743 171.805 26.7049 170.916C26.9697 169.104 33.4239 164.57 31.4062 163.773C30.1425 163.272 28.4633 165.491 25.3935 168.782C23.3408 170.987 19.3403 171.953 17.4605 176.019C15.2773 180.737 21.5493 181.048 20.019 185.117C19.1839 196.035 24.5658 186.945 21.6063 181.516C21.2127 179.263 30.0193 180.358 31.2608 181.871C33.1002 184.112 35.3073 185.513 37.7389 185.383C45.1164 184.992 42.1845 187.478 42.1532 192.123C43.7497 192.1 43.9447 189.921 44.9839 191.52C47.0642 194.721 45.2028 198.677 47.4302 199.776C49.3339 195.153 47.7263 189.358 50.3106 195.508C50.6784 196.389 49.7588 201.588 51.1254 202.605C53.9616 204.723 59.7021 202.726 58.5617 204.136C57.666 205.247 63.7302 208.829 63.5536 210.817C62.7424 214.75 60.7542 215.6 57.4103 221.486C55.6096 224.656 52.8562 228.006 52.3724 232.386C51.942 236.298 53.7335 241.13 53.0934 245.607C52.3062 251.096 48.3609 253.516 48.1034 264.225C48.0169 267.781 47.1948 273.702 47.0789 276.85C46.849 283.1 48.2266 288.957 48.8704 293.117C49.7477 298.793 46.6319 301.59 54.1161 301.652C59.062 301.693 64.4309 303.88 76.1234 301.698C81.6413 300.669 88.6307 298.602 97.6194 296.145C106.632 293.679 103.888 289.553 105.361 285.136C107.279 279.384 118.832 279.656 125.321 271.168C125.897 270.416 135.053 269.735 138.309 268.066C151.119 261.499 160.956 263.842 170.745 266.086C180.534 268.33 187.278 267.39 197.179 268.186C199.534 268.375 197.486 263.551 198.283 260.551C199.666 255.359 208.603 257.923 212.964 260.149C214.325 260.844 218.559 257.233 221.026 258.17C227.169 260.506 236.66 265.957 239.706 264.17C249.379 257 248.207 260.631 242.522 257.923C238.647 256.075 234.333 254.688 230.199 253.529C228.657 253.099 231.002 249.459 229.54 249.083C220.257 246.667 204.91 252.794 212.779 244.414C216.043 240.936 219.019 230.837 223.263 225.453C233.154 208.626 239.127 204.62 246.171 186.244C247.643 182.538 255.038 187.816 255 182.254C254.904 167.968 252.714 161.893 251.281 146.905C250.508 138.843 250.874 136.145 246.315 127.813C243.71 123.015 226.941 90.1612 222.757 84.3555C222.047 82.7942 217.848 84.9672 217.191 83.6122C216.786 82.78 203.633 81.3503 192.048 81.3201C185.446 81.3023 181.814 83.0841 175.159 82.3141C171.035 81.8375 168.722 83.8451 165.179 82.4919C163.126 81.7113 162.705 77.8188 160.949 76.7413C156.534 74.0206 152.988 73.0978 151.64 67.5409C150.661 63.508 145.066 55.8298 142.716 50.392C141.428 47.4029 144.437 46.6578 141.949 43.8981C127.782 28.2127 103.858 14.766 103.858 14.766C103.858 14.766 73.6587 13.2457 41.5775 22.0033C29.2174 25.3818 20.0576 31.5628 7.08314 38.039C2.117 40.5035 -0.0221106 40.3862 1.46405 43.0321C2.21633 44.3711 6.4872 45.0753 7.73425 46.7432C9.66185 49.3234 8.31915 52.7713 6.26281 53.2994C1.21758 54.5957 2.0324 55.8671 9.2057 58.8349C16.379 61.8027 16.8535 69.8597 16.7009 75.0698C16.6144 78.0429 14.8229 78.8289 16.7009 82.307L21.5199 88.2515Z" fill="#E7E7E7" stroke="#3C3C3C" stroke-width="1.5" stroke-miterlimit="10"/>
<path d="M29.744 53.434C25.8441 50.1925 32.274 45.8091 28.7247 43.3079C25.8332 41.5669 25.2097 44.5386 22.8749 45.1666C21.6387 40.7434 26.0754 38.9046 27.6422 35.5437C30.8807 27.5804 43.2726 22.4912 52.1856 22.1727C68.9166 21.5754 79.0657 20.7357 85.2029 27.642C86.8818 29.5315 84.7385 33.5276 85.8698 36.7418C86.7391 39.2159 88.8788 40.1805 90.2071 43.2898C91.2046 45.6336 89.3522 52.2214 89.8926 55.6908C90.3317 58.5214 90.8956 59.8752 91.0871 62.9302C91.2679 65.8965 92.0034 63.1835 95.737 64.6459C97.9418 65.5074 99.6785 68.9678 102.653 70.8753C105.859 72.9349 110.301 73.4634 112.412 74.7683C117.671 78.026 119.991 80.319 122.082 85.7811C123.347 89.0678 124.849 90.8831 124.659 98.1188C124.585 100.966 115.262 103.742 111.208 103.092C107.379 102.479 104.419 100.323 104.16 98.3703C103.962 96.8247 100.779 96.3958 99.3207 96.1044C98.484 95.9379 96.5467 98.9604 97.246 100.575C97.9689 102.251 101.381 104.013 102.221 104.292C109.558 106.772 119.679 109.447 94.2298 110.52C86.177 110.86 75.8851 109.51 73.1183 108.699C66.9034 106.873 63.6504 100.298 64.1926 97.5794C61.3698 91.7427 53.8392 102.631 50.8031 101.644C41.122 98.497 38.2215 102.634 32.8252 96.0339C28.8494 91.1708 31.7265 89.0606 30.8229 86.2807C28.0488 77.7889 22.6417 71.1667 29.744 53.434Z" fill="#DCDCDC"/>
<path d="M470.21 109.161C469.655 104.69 470.224 93.9581 470.224 93.9581C470.224 93.9581 463.912 92.8921 461.781 92.9211C451.028 93.0622 444.674 100.211 434.012 88.7349C431.192 85.6998 423.732 88.8073 422.603 84.6736C421.278 78.9636 423.877 78.6903 426.94 75.8923C428.274 74.6743 427.425 72.041 428.827 70.4157C430.645 68.3055 434.702 67.2522 436.215 66.5753C438.26 62.1792 424.569 60.858 419.397 54.0874C418.155 52.4586 414.451 55.1172 414.588 52.5762C414.653 51.3799 419.106 53.0305 420.434 50.4985C423.922 43.889 416.292 45.8635 415.916 43.5107C415.645 41.8602 419.87 42.2058 420.16 41.7172C426.378 31.2039 393.269 35.5004 386.204 30.3152C378.844 24.9328 382.726 16.1732 375.571 18.6762C369.065 20.9566 363.701 16.5858 356.218 8.97184C342.19 -4.90055 345.472 3.18942 341.509 7.97462C340.103 9.67225 332.717 9.37543 328.255 6.33491C323.54 4.64995 316.87 7.60179 318.185 12.0902C318.894 14.6855 323.849 15.4565 327.944 18.8011C331.835 21.9809 334.86 27.7525 335.925 29.5153C334.213 33.1965 327.061 22.2126 319.776 18.3613C314.949 15.8094 310.098 14.9606 307.46 17.4799C302.853 21.8742 309.334 31.0446 302.747 32.0219C297.457 34.7493 301.359 31.0337 279.434 39.6377C255.971 48.8461 244.622 43.2574 252.868 69.5C253.333 70.9786 251.737 74.1856 252.507 76.8334C252.792 77.8216 255.727 79.8957 256.278 81.6494C256.756 83.1642 253.053 85.7686 252.507 85.993C249.254 87.3287 246.433 84.8474 242.229 84.0022C233.949 82.3516 224.257 80.5635 223.006 81.273C221.707 82.0132 228.554 87.1368 237.419 108.506C240.944 117.012 247.078 126.988 248.495 130.276C252.774 140.207 249.599 147.164 252.758 154.445C255.83 153.721 256.154 155.234 258.416 157.717C260.744 161.722 268.329 152.848 271.161 154.821C273.812 157.898 280.636 155.044 283.497 155.17C289.757 155.449 290.906 155.999 298.288 155.382C304.321 154.879 314.11 153.831 319.402 153.621C321.417 153.54 323.526 151.605 326.24 151.668C332.204 151.808 339.613 154.278 345.098 155.572C349.108 156.519 353.05 155.862 355.911 157.711C360.298 160.555 355.988 163.152 361.874 164.008C384.007 167.22 411.453 166.085 411.453 166.085C411.453 166.085 411.729 181.697 411.666 186.669C411.59 192.768 425.67 183.987 427.312 188.431C427.889 190.026 429.857 196.929 429.857 196.929C429.857 196.929 435.71 197.323 439.571 196.588L440.922 147.136C440.922 147.136 433.171 146.746 427.602 146.758L428.355 108.862C428.355 108.862 449.976 110.069 470.21 109.161Z" fill="#E7E7E7" stroke="#3C3C3C" stroke-width="1.5" stroke-miterlimit="10"/>
<path d="M553.628 171.716C553.568 171.663 550.08 165.855 550.194 162.281C550.243 160.685 549.359 151.867 549.394 149.958C549.441 147.266 546.376 147.887 546.612 145.757C547.196 140.483 542.185 138.815 536.995 136.407C534.736 135.361 535.444 134.438 533.648 129.137C533.221 127.881 530.707 127.709 530.172 126.28C529.637 124.85 530.648 123.816 530.064 122.244C529.625 121.06 528.465 120.866 527.942 119.648C526.413 116.07 528.985 114.943 527.848 111.669C526.274 107.128 520.036 101.921 516.205 99.8651C514.884 99.1574 510.94 94.3053 507.671 95.0491C505.262 95.7875 503.927 103.754 502.109 101.517C499.579 98.4172 489.068 104.276 486.457 102.422C480.717 98.3339 476.824 95.4328 474.151 94.2546C471.815 93.223 470.347 93.6429 470.23 93.9704V108.978L428.379 108.701L427.884 147.024L440.881 147.402C439.996 165.273 439.529 196.854 439.529 196.854C449.212 195.893 458.803 196.042 463.702 195.587C468.679 195.122 478.406 197.806 481.736 199.884C483.267 200.838 493.134 206.077 503.632 215.836C514.421 225.864 528.08 238.873 543.712 250.132C552.986 256.814 560.273 265.409 568.89 270.326C575.347 274.011 583.962 274.308 589.779 277.272C594.781 279.806 600.237 284.91 605.863 289.541C615.483 297.474 624.477 305.256 624.477 305.256L609.58 319.042L609.674 349.541C636.276 348.792 683.588 349.447 683.588 349.447C683.588 349.447 688.916 345.898 686.299 340.917C679.307 327.588 703.733 326.875 706.319 326.784C710.71 326.63 718.357 331.357 727.346 326.406C733.945 322.772 735.747 320.692 735.407 312.108C735.227 307.647 749.637 310.372 759.546 316.216C767.102 320.672 772.612 319.923 778.496 319.655C783.195 319.447 785.906 316.454 787.03 313.424C787.503 312.157 788.761 312.28 789.576 310.166C790.091 308.83 786.175 307.632 786.605 305.823C787.554 301.854 785.47 294.421 787.313 291.28C792.084 283.136 797.253 285.757 792.782 280.941C790.594 278.588 788.522 277.598 784.436 276.778C780.762 276.054 778.753 276.673 774.82 275.645C771.985 274.903 770.709 271.152 767.749 270.263C763.05 268.851 758.082 267.827 753.087 266.1C750.68 265.273 748.457 263.386 745.967 263.599C743.798 263.791 740.661 266.22 738.472 265.393C734.947 264.062 730.629 263.795 727.017 262.316C718.928 259.026 711.399 253.94 703.019 250.042C700.957 249.081 681.546 238.951 655.817 225.46C652.423 223.68 647.134 226.105 643.709 223.98C611.698 204.128 572.717 181.818 553.628 171.716Z" fill="#E7E7E7" stroke="#3C3C3C" stroke-width="1.5" stroke-miterlimit="10"/>
<path d="M440.416 196.777C454.472 195.574 463.702 195.592 463.702 195.592L463.581 205.301C463.581 205.301 451.653 205.345 445.409 205.267C443.367 205.243 444.755 209.866 445.174 222.641C446.423 231.399 436.861 221.092 437.223 232.087C437.335 235.591 438.634 237.942 431.836 237.942C428.064 237.942 447.547 272.034 458.707 277.128C470.26 282.402 470.468 290.764 460.499 291.764C457.295 292.087 467.381 300.924 464.551 301.719C458.163 303.528 453.189 297.835 454.841 304.126C458.049 316.344 470.258 330.278 482.5 345.137C486.648 350.173 495.259 359.175 492.557 370.885C491.982 373.372 492.451 387.644 492.431 390.084C492.396 394.417 492.431 397.891 495.25 397.958C503.422 398.139 499.296 402.302 498.089 404.626C497.088 406.553 485.088 403.86 483.317 407.703C484.436 407.954 486.268 410.915 489.476 412.173C491.26 412.871 494.625 410.654 495.763 412.866C496.634 414.556 494.046 416.046 494.317 418.279C495.071 424.51 488.813 425.7 489.288 427.47L488.043 426.715C485.749 424.873 483.585 422.875 481.568 420.733H477.106C477.106 420.733 470.567 421.803 474.395 411.416C474.395 411.416 476.343 402.101 472.196 401.533C468.048 400.964 466.788 399.904 467.04 399.772C467.291 399.64 470.246 395.68 471.755 393.351C473.264 391.021 473.892 383.782 470.938 379.438C467.983 375.095 470.687 360.931 470.687 360.931L425.113 361.434L405.501 337.135L399.845 336.505C399.845 336.505 394.376 332.477 392.365 332.225C390.353 331.974 380.618 331.28 380.618 331.28C380.618 331.28 372.699 322.971 370.876 320.579C369.052 318.186 368.362 311.513 368.362 311.513C368.362 311.513 361.78 306.726 357.757 305.783C353.734 304.841 340.074 297.855 340.074 297.855C340.074 297.855 335.399 305.05 325.68 297.098C322.707 294.666 321.2 300.276 319.143 300.497C314.77 300.971 309.78 298.542 307.64 297.979C304.568 297.169 304.183 298.861 303.303 296.468C302.774 295.021 302.539 293.483 302.611 291.944C302.611 291.944 290.864 288.796 288.531 287.348C286.198 285.901 280.296 283.005 277.28 282.438C274.263 281.872 263.449 281.054 263.449 281.054C263.449 281.054 256.535 278.598 255.593 278.031C254.652 277.465 253.455 274.528 254.776 271.878C256.098 269.228 251.758 263.873 250.125 262.299C249.074 261.307 247.913 260.44 246.664 259.714L242.518 258.614C238.711 256.735 234.473 255.323 230.41 254.143C228.896 253.704 231.2 249.999 229.763 249.619C220.642 247.161 205.563 253.396 213.294 244.866C216.502 241.326 219.426 231.05 223.595 225.57C233.314 208.441 239.182 204.366 246.104 185.661C247.55 181.891 254.816 187.263 254.778 181.602C254.71 170.987 253.546 164.826 252.373 156.342L252.767 154.472C255.839 153.748 256.163 155.261 258.425 157.744C260.753 161.749 268.338 152.876 271.169 154.849C273.821 157.925 280.645 155.071 283.505 155.198C289.765 155.477 290.915 156.027 298.297 155.41C304.33 154.907 314.119 153.859 319.411 153.649C321.426 153.567 323.535 151.633 326.249 151.696C332.213 151.835 339.622 154.306 345.107 155.6C349.117 156.546 353.059 155.889 355.919 157.739C360.307 160.582 355.997 163.179 361.883 164.035C384.016 167.248 411.461 166.113 411.461 166.113C411.461 166.113 411.738 181.725 411.675 186.696C411.599 192.795 425.679 184.014 427.321 188.459C427.898 190.054 429.866 196.956 429.866 196.956L440.416 196.777Z" fill="#E7E7E7" stroke="#3C3C3C" stroke-width="1.5" stroke-miterlimit="10"/>
<path d="M14.0957 198.907C13.6982 200.425 14.6596 201.954 14.2385 203.571C13.2048 207.536 14.0343 211.496 14.3235 215.461C14.6849 214.58 14.75 213.7 14.7825 212.817C14.9921 207.221 14.9632 201.596 16.4957 196.139L16.1343 195.531C14.7662 196.239 14.4265 197.638 14.0957 198.907Z" fill="#E7E7E7" stroke="#3C3C3C" stroke-width="2" stroke-miterlimit="10"/>
<path d="M683.58 349.451C644.263 347.751 609.666 349.545 609.666 349.545C609.289 335.665 609.572 319.045 609.572 319.045L624.469 305.26C624.469 305.26 611.709 294.166 594.486 280.237C585.745 273.168 575.379 275.17 567.613 269.472C558.216 262.584 539.37 245.892 528.106 238.028C518.839 231.556 510.414 222.549 507.269 219.521C501.365 213.1 490.482 204.005 481.528 199.794C471.52 195.077 463.709 195.6 463.709 195.6L463.581 205.301C463.581 205.301 451.653 205.344 445.409 205.267C443.367 205.243 444.755 209.865 445.174 222.641C446.423 231.399 436.861 221.092 437.223 232.087C437.335 235.59 438.634 237.941 431.836 237.941C428.064 237.941 447.547 272.033 458.707 277.128C470.26 282.402 470.468 290.763 460.499 291.764C457.295 292.086 467.381 300.924 464.551 301.718C458.163 303.528 453.189 297.834 454.841 304.125C458.049 316.343 470.258 330.277 482.5 345.136C486.648 350.173 495.259 359.175 492.557 370.885C491.982 373.371 492.45 387.644 492.431 390.083C492.396 394.416 492.431 397.891 495.25 397.958C503.422 398.139 499.296 402.302 498.089 404.625C497.088 406.553 485.088 403.86 483.317 407.702C484.436 407.954 486.268 410.915 489.476 412.172C491.259 412.871 494.624 410.654 495.763 412.866C496.634 414.556 494.046 416.045 494.317 418.279C495.071 424.51 488.813 425.699 489.288 427.469C491.234 434.756 504.147 433.148 505.066 433.08C514.997 432.262 522.446 427.634 530.367 438.587C532.987 442.207 537.957 451.406 541.418 448.308C542.562 447.052 548.123 442.456 549.789 443.215C561.673 448.246 559.423 442.491 569.778 439.626C577.674 437.273 573.736 438.008 579.868 434.055C583.883 431.451 591.211 432.359 589.579 428.484C584.487 416.397 597.443 419.014 597.029 416.302C596.226 411.07 587.14 410.011 590.239 408.182C595.744 405.829 609.663 409.126 616.263 402.045C618.811 399.31 624.536 401.046 633.973 398.591C638.97 397.29 645.346 401.849 645.488 398.894C645.409 393.632 645.398 390.65 648.516 390.335C651.441 390.04 657.461 392.366 658.699 389.296C683.739 371.082 670.245 379.458 683.58 349.451Z" fill="#E7E7E7" stroke="#3C3C3C" stroke-width="1.5" stroke-miterlimit="10"/>
<path d="M89.2002 296.382L77.0378 298.176L72.0392 295.823H59.3129C59.3129 295.823 52.0535 291.48 54.9757 284.964C54.9757 284.964 57.9937 278.733 56.3907 275.238C54.7877 271.743 50.7324 265.23 52.995 261.641C55.2576 258.052 58.7473 257.864 66.7622 257.391C74.777 256.919 75.4367 255.598 76.2842 252.199C77.1318 248.8 87.599 242.661 87.599 242.661C87.599 242.661 81.7528 229.811 90.711 225.853C99.6692 221.895 101.735 221.794 102.214 216.317C102.693 210.841 103.157 195.072 103.157 195.072L98.2524 182.135L96.0838 179.15" stroke="#E0852A" stroke-width="2" stroke-miterlimit="10"/>
<path d="M149.45 195.065L137.383 194.593L123.522 199.409L115.516 198.086L110.613 194.403L102.429 193.123" stroke="#E0852A" stroke-width="2" stroke-miterlimit="10"/>
<path d="M148.336 195.051C140.699 195.806 131.913 185.849 131.913 185.849L122.389 186.392C119.845 186.573 121.542 184.303 119.939 182.604C118.336 180.904 112.678 180.902 112.678 180.902L100.138 181.156C96.1798 179.075 95.4244 178.877 95.4244 178.877C95.4244 178.877 89.2005 174.472 88.3204 171.638C87.4403 168.804 88.2571 166.918 86.309 162.699C84.3608 158.48 80.7772 155.65 75.4351 153.76C70.0931 151.871 58.6518 145.2 56.8211 144.255C54.9904 143.31 48.3978 143.247 48.3978 143.247C48.3978 143.247 40.9486 140.679 34.8204 141.548C28.6922 142.416 29.4151 140.1 27.1525 139.597C24.8899 139.093 17.8491 142.114 16.0257 144.695C14.2022 147.276 9.55231 136.638 9.48906 135.38C9.42581 134.122 8.73365 130.343 11.1155 127.95C13.4974 125.558 13.6293 120.963 13.8263 118.508C14.0233 116.054 18.8539 109.327 19.6093 107.528C20.3647 105.729 17.6666 104.162 19.3021 100.511C20.9376 96.861 25.4628 89.6216 25.8387 88.2986C26.2146 86.9757 27.7868 85.278 25.5875 82.7587C23.3881 80.2395 22.0038 79.3599 22.0038 79.3599C22.0038 79.3599 23.3773 76.779 22.6598 73.7494C21.9424 70.7197 21.7562 63.5528 19.8045 60.4055C17.8527 57.2582 16.4829 55.8085 15.0371 53.6132C13.5914 51.4178 12.3263 50.8984 12.3263 50.8984C12.3263 50.8984 13.9528 50.522 14.3377 47.248C14.7227 43.974 13.7088 25.9697 13.7088 25.9697" stroke="#E0852A" stroke-width="2" stroke-miterlimit="10"/>
<path d="M147.787 194.942C152.594 193.997 158.793 195.745 162.565 197.057C166.336 198.369 172.654 201.674 176.898 205.073C181.141 208.472 182.272 208.566 184.629 208.472C186.985 208.378 209.118 219.262 211.158 220.477C213.198 221.691 231.773 233.176 234.507 234.327C237.241 235.478 241.579 238.128 243.088 238.783C244.597 239.438 245.256 242.372 246.2 243.599C247.143 244.826 251.384 245.393 252.886 245.677C254.388 245.961 275.232 260.501 278.729 262.485C282.226 264.468 296.831 271.353 299.754 272.965C302.676 274.578 310.416 277.97 312.484 281.558C314.551 285.147 315.312 283.73 319.083 283.352C322.855 282.974 332.567 285.902 336.432 287.696C340.298 289.489 352.462 294.968 354.913 296.855C357.363 298.743 369.621 305.542 373.205 308.092C376.789 310.643 380.276 315.268 383.011 316.78C385.745 318.291 386.688 318.385 389.697 318.951C392.706 319.518 396.675 324.428 401.578 325.089C406.481 325.749 411.949 326.506 416.005 324.144C416.005 324.144 425.433 319.424 427.885 318.289C430.337 317.154 435.9 315.835 439.482 319.046C443.064 322.256 455.134 334.531 456.737 336.514C458.34 338.498 464.374 347.657 467.296 350.772C470.218 353.887 473.983 358.232 475.123 360.97C475.123 360.97 475.689 364.181 472.861 367.345" stroke="#E0852A" stroke-width="2" stroke-miterlimit="10"/>
<path d="M544.214 327.269C543.415 325.801 543.672 323.011 543.672 323.011C543.862 320.367 543.012 316.779 541.409 315.062C539.806 313.344 533.678 306.194 531.887 304.315C530.096 302.436 527.55 304.134 523.495 304.315C519.439 304.496 513.501 305.826 510.201 306.581C506.901 307.336 504.355 314.041 501.707 314.229C499.06 314.418 493.786 316.582 489.449 320.461C485.112 324.339 476.256 326.694 476.256 326.694L455.792 325.836C455.792 325.836 449.664 319.139 446.364 318.188C443.064 317.236 438.915 320.258 438.788 318.49" stroke="#E0852A" stroke-width="2" stroke-miterlimit="10"/>
<path d="M540.567 439.44C543.489 439.344 546.507 438.307 546.318 437.55C546.128 436.794 545.942 429.713 547.167 429.044C548.392 428.374 552.164 426.306 551.41 425.645C550.657 424.984 550.279 423.473 550.939 421.12C551.598 418.768 552.73 417.343 554.992 414.321C557.255 411.298 558.104 406.012 558.386 403.368C558.668 400.724 557.255 389.676 557.483 386.844C557.71 384.012 555.469 374.662 555.375 371.924C555.281 369.185 551.038 364.181 549.623 363.521C548.208 362.86 546.983 358.232 547.548 356.911C548.114 355.59 548.116 350.678 548.02 348.405C547.924 346.132 547.079 340.378 547.36 335.846C547.642 331.315 545.476 330.37 543.71 326.12C541.944 321.871 540.195 322.343 536.895 321.022C533.595 319.701 531.802 320.077 531.049 318.094C530.295 316.11 529.258 314.977 526.052 313.75C522.846 312.523 518.037 310.067 512.662 307.141C512.662 307.141 513.834 305.385 511.312 306.324" stroke="#E0852A" stroke-width="2" stroke-miterlimit="10"/>
<path d="M533.7 306.332C536.684 305.543 539.042 306.015 542.154 304.126C545.266 302.236 547.151 300.727 550.451 297.791C553.751 294.856 555.428 289.953 558.403 287.026C561.377 284.1 567.039 277.584 570.341 274.09C573.643 270.595 586.369 258.038 588.066 254.071C589.763 250.104 589.293 247.375 592.875 244.439C596.457 241.504 603.152 232.829 606.264 230.418C609.376 228.008 611.261 225.461 612.486 224.232C613.712 223.003 613.43 220.549 612.486 219.04C611.543 217.531 611.639 216.962 613.713 215.735C615.788 214.508 617.147 212.818 618.427 211.107" stroke="#E0852A" stroke-width="2" stroke-miterlimit="10"/>
<path d="M710.081 322.256C706.781 321.594 704.707 321.595 700.935 319.8C697.164 318.005 695.844 317.252 694.807 315.174C693.77 313.096 695.373 309.697 695.75 305.826C696.128 301.955 699.05 304.976 700.369 306.205C701.689 307.433 708.863 306.109 711.496 306.205C714.129 306.3 714.231 302.9 711.496 300.822C708.762 298.744 708.478 295.063 707.34 293.268C706.201 291.472 705.737 289.963 704.512 288.358C703.286 286.752 691.5 277.971 688.86 278.443C686.219 278.916 681.128 276.453 675.47 274.572C669.812 272.692 663.779 268.907 660.29 266.64C656.8 264.372 653.784 262.477 650.768 259.842C647.751 257.207 645.581 254.932 641.433 252.099C637.286 249.267 637.568 248.983 636.719 245.961C635.869 242.938 627.95 235.762 625.026 232.93C622.102 230.097 617.752 228.353 613.617 224.148C612.99 223.509 613.995 220.749 612.486 219.05C610.977 217.351 612.253 216.766 613.713 215.745C615.173 214.725 624.272 205.547 624.272 205.547" stroke="#E0852A" stroke-width="2" stroke-miterlimit="10"/>
<path d="M790.232 329.244C791.835 329.62 768.726 322.909 768.726 322.909L772.782 317.244L757.508 309.784C757.508 309.784 757.507 309.124 752.321 308.934C747.134 308.744 744.402 307.991 741.006 305.723C737.61 303.455 733.275 300.531 730.824 298.925C728.374 297.32 724.694 298.453 722.62 296.375C720.545 294.297 716.728 293.213 715.738 292.213C715.738 292.213 714.858 288.216 712.234 288.531C709.61 288.846 709.736 289.387 709.736 289.387" stroke="#E0852A" stroke-width="2" stroke-miterlimit="10"/>
<path d="M778.635 287.508C776.748 289.68 772.129 298.839 772.129 298.839V303.002C772.129 303.002 771.939 304.419 767.32 304.513C762.701 304.607 758.719 305.809 757.796 307.63L756.943 309.47C756.943 309.47 751.791 309.02 750.058 308.817" stroke="#E0852A" stroke-width="2" stroke-miterlimit="10"/>
<path d="M725.645 256.157C725.645 256.157 723.099 263.239 721.967 265.789C720.836 268.339 715.745 273.91 713.517 276.082C711.289 278.253 711.974 281.464 712.162 284.588C712.35 287.712 710.842 285.533 710.465 287.138C710.465 287.138 710.512 288.271 709.333 290.113C708.155 291.956 706.442 291.641 707.118 292.891" stroke="#E0852A" stroke-width="2" stroke-miterlimit="10"/>
<path d="M395.542 24.5293L379.796 26.0405C379.796 26.0405 371.028 30.1018 373.009 31.2347C374.989 32.3677 387.527 34.8218 387.527 36.7113C387.527 38.6008 381.871 39.0261 381.871 39.0261H371.415L369.607 41.6214C369.607 41.6214 372.813 42.8484 376.869 44.1714C380.924 45.4944 385.543 48.325 386.581 49.9303C387.385 51.1755 392.389 54.2975 395.436 56.1616C396.314 56.7046 397.028 57.1371 397.424 57.3905C399.215 58.5234 406.474 59.4682 409.492 59.0899C412.51 58.7117 414.267 59.6093 414.677 62.4888C414.773 63.1512 417.604 65.4696 421.233 65.7266" stroke="#E0852A" stroke-width="2" stroke-miterlimit="10"/>
<path d="M396.108 25.002L380.362 26.6073L373.009 31.235C373.009 31.235 376.036 32.2811 378.779 33.0539C381.522 33.8267 386.156 35.499 390.828 36.9939C395.499 38.4888 397.052 41.4334 401.295 44.7382C405.538 48.043 406.292 47.7588 410.535 50.8754C414.778 53.9919 413.835 55.219 414.692 58.7119C414.692 58.7119 414.081 62.6357 415.736 63.6492C417.391 64.6627 424.411 65.7938 424.411 65.7938C424.317 66.5503 415.36 64.6464 415.36 64.6464L411.964 72.7816L421.094 76.0791L417.888 86.3717L430.329 92.5179L442.587 102.999L445.228 101.299C450.35 101.147 455.456 100.642 460.509 99.788C468.9 98.3709 473.049 99.4097 476.349 100.827C479.649 102.244 494.358 102.905 494.358 102.905C494.358 102.905 506.05 104.604 511.425 105.257C516.799 105.911 518.213 113.764 518.874 116.116C519.536 118.469 521.984 129.431 524.531 129.525C527.077 129.619 528.208 131.131 529.717 133.208C531.226 135.286 532.356 143.217 536.789 145.01C541.222 146.804 544.706 154.083 545.086 158.427C545.465 162.77 545.745 165.32 546.782 166.933C547.82 168.545 552.251 172.504 552.441 176.563C552.631 180.622 553.288 180.436 557.47 183.551C561.652 186.666 564.415 192.057 568.281 192.804C572.146 193.552 575.728 198.659 573.372 199.416C571.015 200.172 569.412 203.475 567.046 207.321C564.681 211.167 559.599 214.146 557.468 215.561C555.338 216.977 555.361 221.416 557.468 222.927C559.576 224.439 572.426 232.181 572.426 232.181L573.935 242.189L572.426 247.195H579.784C579.784 247.195 581.896 248.08 586.289 250.971C588.668 252.536 588.915 252.035 588.436 253.195" stroke="#E0852A" stroke-width="2" stroke-miterlimit="10"/>
<path d="M395.27 56.8235C393.477 59.6559 396.495 62.1118 391.402 63.0548C386.309 63.9977 371.131 64.566 365.474 64.1877C359.818 63.8095 350.294 64.1877 347.842 63.433C345.389 62.6783 346.474 59.0894 346.544 57.2959C346.615 55.5023 345.861 51.0628 348.879 48.6087C351.897 46.1545 361.041 40.4915 363.116 39.0165C365.191 37.5415 368.404 39.0165 370.757 39.0165C373.11 39.0165 382.523 40.2671 385.034 38.4844C387.544 36.7018 389.087 36.2782 383.226 34.4539C377.366 32.6296 373.019 31.2252 373.019 31.2252L380.373 26.5974L396.309 25.5586" stroke="#E0852A" stroke-width="2" stroke-miterlimit="10"/>
<path d="M316.371 303.716C316.19 297.358 313.92 292.008 312.662 290.685C311.405 289.362 315.68 284.39 315.617 280.992C315.554 277.593 314.379 274.57 314.401 271.171C314.423 267.773 318.76 265.883 320.583 263.427C322.407 260.971 324.418 255.433 324.48 249.578C324.541 243.723 323.412 231.404 323.852 228.468C324.293 225.533 328.629 215.901 327.686 210.613C326.742 205.324 331.269 203.058 331.269 203.058L325.925 189.901C325.925 189.901 324.104 184.361 324.48 181.719C324.855 179.076 323.215 170.89 323.789 168.246C324.364 165.602 326.366 160.954 325.416 157.423C324.465 153.892 322.085 146.465 321.259 143.254C320.433 140.043 322.078 136.393 323.272 132.994C324.467 129.595 323.209 126.446 324.78 121.284C326.35 116.123 326.73 112.976 329.682 110.52C332.635 108.064 333.958 101.771 333.329 98.6235C332.7 95.4762 334.9 93.7134 335.655 90.2494C336.411 86.7854 335.026 84.7729 335.655 82.3187C336.284 79.8646 336.723 76.6521 339.678 73.4505C342.633 70.2489 346.52 63.9127 346.52 60.6007C346.52 57.2887 345.532 51.0086 348.855 48.6087C352.178 46.2089 361.175 40.4283 363.092 39.0166C365.009 37.6049 368.904 38.9243 370.733 39.0166C372.562 39.1089 378.964 39.6645 381.856 39.0166C384.747 38.3687 383.62 39.4492 385.006 38.4845C386.392 37.5199 389.786 36.6041 385.127 35.1019C380.468 33.5998 372.994 31.2253 372.994 31.2253L380.347 26.5975L395.119 24.9922" stroke="#E0852A" stroke-width="2" stroke-miterlimit="10"/>
<path d="M314.739 274.748C314.739 274.748 315.225 277.439 315.505 279.347C315.785 281.254 312.726 277.278 310.966 276.522C309.205 275.765 305.002 272.115 302.04 270.667C299.078 269.219 298.08 271.108 295.189 273.249C292.297 275.39 295.942 274.878 298.332 275.577C300.721 276.275 303.359 278.978 302.732 282.25L302.04 291.569" stroke="#E0852A" stroke-width="2" stroke-miterlimit="10"/>
<path d="M384.83 32.3444C388.345 32.3444 391.195 29.4905 391.195 25.97C391.195 22.4496 388.345 19.5957 384.83 19.5957C381.315 19.5957 378.465 22.4496 378.465 25.97C378.465 29.4905 381.315 32.3444 384.83 32.3444Z" fill="#E0852A"/>
<path d="M424.651 72.101C428.166 72.101 431.016 69.2472 431.016 65.7268C431.016 62.2064 428.166 59.3525 424.651 59.3525C421.136 59.3525 418.286 62.2064 418.286 65.7268C418.286 69.2472 421.136 72.101 424.651 72.101Z" fill="#E0852A"/>
<path d="M494.423 108.831C497.938 108.831 500.787 105.978 500.787 102.457C500.787 98.9368 497.938 96.083 494.423 96.083C490.907 96.083 488.058 98.9368 488.058 102.457C488.058 105.978 490.907 108.831 494.423 108.831Z" fill="#E0852A"/>
<path d="M620.09 214.988C623.605 214.988 626.454 212.134 626.454 208.614C626.454 205.093 623.605 202.239 620.09 202.239C616.574 202.239 613.725 205.093 613.725 208.614C613.725 212.134 616.574 214.988 620.09 214.988Z" fill="#E0852A"/>
<path d="M724.149 265.944C727.664 265.944 730.514 263.09 730.514 259.57C730.514 256.049 727.664 253.195 724.149 253.195C720.634 253.195 717.784 256.049 717.784 259.57C717.784 263.09 720.634 265.944 724.149 265.944Z" fill="#E0852A"/>
<path d="M714.283 331.038C717.798 331.038 720.648 328.184 720.648 324.663C720.648 321.143 717.798 318.289 714.283 318.289C710.768 318.289 707.918 321.143 707.918 324.663C707.918 328.184 710.768 331.038 714.283 331.038Z" fill="#E0852A"/>
<path d="M536.268 445.864C539.783 445.864 542.633 443.01 542.633 439.49C542.633 435.969 539.783 433.115 536.268 433.115C532.753 433.115 529.903 435.969 529.903 439.49C529.903 443.01 532.753 445.864 536.268 445.864Z" fill="#E0852A"/>
<path d="M472.532 367.343C476.047 367.343 478.897 364.489 478.897 360.969C478.897 357.449 476.047 354.595 472.532 354.595C469.017 354.595 466.167 357.449 466.167 360.969C466.167 364.489 469.017 367.343 472.532 367.343Z" fill="#E0852A"/>
<path d="M315.916 309.039C319.431 309.039 322.281 306.186 322.281 302.665C322.281 299.145 319.431 296.291 315.916 296.291C312.4 296.291 309.551 299.145 309.551 302.665C309.551 306.186 312.4 309.039 315.916 309.039Z" fill="#E0852A"/>
<path d="M95.5661 304.221C99.0813 304.221 101.931 301.367 101.931 297.847C101.931 294.326 99.0813 291.473 95.5661 291.473C92.0508 291.473 89.2012 294.326 89.2012 297.847C89.2012 301.367 92.0508 304.221 95.5661 304.221Z" fill="#E0852A"/>
<path d="M14.2887 152.761C17.804 152.761 20.6537 149.907 20.6537 146.387C20.6537 142.867 17.804 140.013 14.2887 140.013C10.7735 140.013 7.92383 142.867 7.92383 146.387C7.92383 149.907 10.7735 152.761 14.2887 152.761Z" fill="#E0852A"/>
<path d="M14.1012 41.2436C17.6165 41.2436 20.4662 38.3898 20.4662 34.8694C20.4662 31.349 17.6165 28.4951 14.1012 28.4951C10.586 28.4951 7.73633 31.349 7.73633 34.8694C7.73633 38.3898 10.586 41.2436 14.1012 41.2436Z" fill="#E0852A"/>
</svg>
