<svg width="24" height="25" viewBox="0 0 24 25" fill="none" xmlns="http://www.w3.org/2000/svg">
<path d="M15.7 13.2L9.7 19.2C9.5 19.4 9.3 19.5 9 19.5C8.7 19.5 8.5 19.4 8.3 19.2C7.9 18.8 7.9 18.2 8.3 17.8L13.6 12.5L8.3 7.2C7.9 6.8 7.9 6.2 8.3 5.8C8.7 5.4 9.3 5.4 9.7 5.8L15.7 11.8C16.1 12.2 16.1 12.8 15.7 13.2Z" fill="#FF962D"/>
<mask id="mask0_184_19251" style="mask-type:luminance" maskUnits="userSpaceOnUse" x="8" y="5" width="8" height="15">
<path d="M15.7 13.2L9.7 19.2C9.5 19.4 9.3 19.5 9 19.5C8.7 19.5 8.5 19.4 8.3 19.2C7.9 18.8 7.9 18.2 8.3 17.8L13.6 12.5L8.3 7.2C7.9 6.8 7.9 6.2 8.3 5.8C8.7 5.4 9.3 5.4 9.7 5.8L15.7 11.8C16.1 12.2 16.1 12.8 15.7 13.2Z" fill="white"/>
</mask>
<g mask="url(#mask0_184_19251)">
<rect y="0.5" width="24" height="24" fill="#FF962D"/>
</g>
</svg>
