<svg width="25" height="24" viewBox="0 0 25 24" fill="none" xmlns="http://www.w3.org/2000/svg">
<path d="M3.5 21H21.5M14.2844 5.31171C14.2844 5.31171 14.2844 6.94634 15.919 8.58096C17.5537 10.2156 19.1883 10.2156 19.1883 10.2156M7.81963 17.9881L11.2523 17.4977C11.7475 17.4269 12.2064 17.1975 12.56 16.8438L20.8229 8.58096C21.7257 7.67818 21.7257 6.21449 20.8229 5.31171L19.1883 3.67708C18.2855 2.77431 16.8218 2.77431 15.919 3.67708L7.65616 11.94C7.30248 12.2936 7.07305 12.7525 7.00231 13.2477L6.51193 16.6804C6.40295 17.4432 7.0568 18.097 7.81963 17.9881Z" stroke="#D1D1D1" stroke-width="1.5" stroke-linecap="round"/>
</svg>
