<svg width="23" height="22" viewBox="0 0 23 22" fill="none" xmlns="http://www.w3.org/2000/svg">
<path d="M18.0588 18.5488C17.0654 15.8918 14.5036 14 11.5 14C8.49638 14 5.9346 15.8918 4.94117 18.5488M18.0588 18.5488C20.1672 16.7154 21.5 14.0134 21.5 11C21.5 5.47715 17.0228 1 11.5 1C5.97715 1 1.5 5.47715 1.5 11C1.5 14.0134 2.83285 16.7154 4.94117 18.5488M18.0588 18.5488C16.3031 20.0756 14.0095 21 11.5 21C8.99052 21 6.69694 20.0756 4.94117 18.5488M14.5 8C14.5 9.65685 13.1569 11 11.5 11C9.84315 11 8.5 9.65685 8.5 8C8.5 6.34315 9.84315 5 11.5 5C13.1569 5 14.5 6.34315 14.5 8Z" stroke="#28303F" stroke-width="1.5" stroke-linejoin="round"/>
</svg>
