<svg width="21" height="23" viewBox="0 0 21 23" fill="none" xmlns="http://www.w3.org/2000/svg">
<path d="M19.5 9V6.5C19.5 4.29086 17.7091 2.5 15.5 2.5H5.5C3.29086 2.5 1.5 4.29086 1.5 6.5V17C1.5 19.2091 3.29086 21 5.5 21H7.5M6.5 1V4M14.5 8H6.5M12.5 12H6.5M8.5 16H6.5M14.5 1V4M10.5 21L13.5608 20.1274C13.7249 20.0806 13.8743 19.9928 13.995 19.8721L19.0098 14.8573C19.6634 14.2037 19.6634 13.1439 19.0098 12.4902C18.3561 11.8366 17.2963 11.8366 16.6427 12.4902L11.6279 17.505C11.5072 17.6257 11.4194 17.7751 11.3726 17.9392L10.5 21Z" stroke="#28303F" stroke-width="1.5" stroke-linecap="round"/>
</svg>
