<svg width="25" height="24" viewBox="0 0 25 24" fill="none" xmlns="http://www.w3.org/2000/svg">
<path d="M21.5 10V7.5C21.5 5.29086 19.7091 3.5 17.5 3.5H7.5C5.29086 3.5 3.5 5.29086 3.5 7.5V18C3.5 20.2091 5.29086 22 7.5 22H9.5M8.5 2V5M16.5 2V5M9.5 11L11.2528 12.4023C11.6707 12.7366 12.2777 12.6826 12.6301 12.2799L15.5 9M12.5 22L15.5608 21.1274C15.7249 21.0806 15.8743 20.9928 15.995 20.8721L21.0098 15.8573C21.6634 15.2037 21.6634 14.1439 21.0098 13.4902C20.3561 12.8366 19.2963 12.8366 18.6427 13.4902L13.6279 18.505C13.5072 18.6257 13.4194 18.7751 13.3726 18.9392L12.5 22Z" stroke="#28303F" stroke-width="1.5" stroke-linecap="round" stroke-linejoin="round"/>
</svg>
