<svg width="21" height="20" viewBox="0 0 21 20" fill="none" xmlns="http://www.w3.org/2000/svg">
<path d="M19.2439 13.7206L18.6043 13.3289V13.3289L19.2439 13.7206ZM18.2894 15.2794L18.929 15.6711V15.6711L18.2894 15.2794ZM1.75609 6.27942L1.11648 5.88775H1.11648L1.75609 6.27942ZM2.71064 4.72057L3.35025 5.11223L2.71064 4.72057ZM5.31852 4.06172L5.6771 3.403L5.6771 3.403L5.31852 4.06172ZM2.45487 8.73826L2.09629 9.39699H2.09629L2.45487 8.73826ZM15.6815 15.9383L15.3229 16.597L15.3229 16.597L15.6815 15.9383ZM18.5451 11.2617L18.1866 11.9204V11.9205L18.5451 11.2617ZM2.71064 15.2794L2.07103 15.6711L2.07103 15.6711L2.71064 15.2794ZM1.75609 13.7206L2.3957 13.3289L2.3957 13.3289L1.75609 13.7206ZM18.2894 4.72058L18.929 4.32892V4.32892L18.2894 4.72058ZM19.2439 6.27943L18.6043 6.67109V6.67109L19.2439 6.27943ZM18.5451 8.73828L18.9037 9.397L18.5451 8.73828ZM15.6815 4.06174L16.0401 4.72046V4.72046L15.6815 4.06174ZM2.45487 11.2617L2.81345 11.9205H2.81345L2.45487 11.2617ZM5.31851 15.9383L4.95994 15.2795L4.95993 15.2795L5.31851 15.9383ZM15.58 4.11698L15.2214 3.45825L15.58 4.11698ZM5.42 4.11697L5.06142 4.77569L5.06142 4.77569L5.42 4.11697ZM15.58 15.883L15.9386 15.2243L15.9386 15.2243L15.58 15.883ZM5.42 15.883L5.77858 16.5418L5.77858 16.5418L5.42 15.883ZM9.54545 1.75H11.4545V0.25H9.54545V1.75ZM11.4545 18.25H9.54545V19.75H11.4545V18.25ZM9.54545 18.25C8.86311 18.25 8.38635 17.7389 8.38635 17.2H6.88635C6.88635 18.6493 8.11906 19.75 9.54545 19.75V18.25ZM12.6136 17.2C12.6136 17.7389 12.1369 18.25 11.4545 18.25V19.75C12.8809 19.75 14.1136 18.6493 14.1136 17.2H12.6136ZM11.4545 1.75C12.1369 1.75 12.6136 2.26107 12.6136 2.8H14.1136C14.1136 1.35071 12.8809 0.25 11.4545 0.25V1.75ZM9.54545 0.25C8.11906 0.25 6.88635 1.35071 6.88635 2.8H8.38635C8.38635 2.26107 8.86311 1.75 9.54545 1.75V0.25ZM18.6043 13.3289L17.6498 14.8878L18.929 15.6711L19.8835 14.1122L18.6043 13.3289ZM2.3957 6.67108L3.35025 5.11223L2.07103 4.32891L1.11648 5.88775L2.3957 6.67108ZM3.35025 5.11223C3.65889 4.6082 4.38055 4.40506 4.95993 4.72045L5.6771 3.403C4.43027 2.72428 2.81676 3.11109 2.07103 4.32891L3.35025 5.11223ZM2.81345 8.07954C2.25746 7.77688 2.1043 7.14696 2.3957 6.67108L1.11648 5.88775C0.353518 7.13373 0.826062 8.70553 2.09629 9.39699L2.81345 8.07954ZM17.6498 14.8878C17.3411 15.3918 16.6195 15.5949 16.0401 15.2795L15.3229 16.597C16.5697 17.2757 18.1832 16.8889 18.929 15.6711L17.6498 14.8878ZM19.8835 14.1122C20.6465 12.8663 20.1739 11.2945 18.9037 10.603L18.1866 11.9205C18.7425 12.2231 18.8957 12.853 18.6043 13.3289L19.8835 14.1122ZM3.35025 14.8878L2.3957 13.3289L1.11648 14.1122L2.07103 15.6711L3.35025 14.8878ZM17.6498 5.11225L18.6043 6.67109L19.8835 5.88777L18.929 4.32892L17.6498 5.11225ZM18.6043 6.67109C18.8957 7.14697 18.7425 7.77689 18.1866 8.07955L18.9037 9.397C20.1739 8.70554 20.6465 7.13374 19.8835 5.88777L18.6043 6.67109ZM16.0401 4.72046C16.6195 4.40507 17.3411 4.60822 17.6498 5.11225L18.929 4.32892C18.1832 3.1111 16.5697 2.72429 15.3229 3.40301L16.0401 4.72046ZM2.3957 13.3289C2.1043 12.853 2.25746 12.2231 2.81345 11.9205L2.09629 10.603C0.82606 11.2945 0.353517 12.8663 1.11648 14.1122L2.3957 13.3289ZM2.07103 15.6711C2.81675 16.8889 4.43027 17.2757 5.6771 16.597L4.95993 15.2795C4.38055 15.5949 3.65889 15.3918 3.35025 14.8878L2.07103 15.6711ZM15.9386 4.7757L16.0401 4.72046L15.3229 3.40301L15.2214 3.45825L15.9386 4.7757ZM4.95993 4.72045L5.06142 4.77569L5.77858 3.45824L5.6771 3.403L4.95993 4.72045ZM16.0401 15.2795L15.9386 15.2243L15.2214 16.5417L15.3229 16.597L16.0401 15.2795ZM5.06142 15.2243L4.95994 15.2795L5.67709 16.597L5.77858 16.5418L5.06142 15.2243ZM2.09629 9.39699C2.57404 9.65705 2.57404 10.3429 2.09629 10.603L2.81345 11.9205C4.33498 11.0922 4.33498 8.90779 2.81345 8.07954L2.09629 9.39699ZM5.77858 16.5418C6.27798 16.2699 6.88635 16.6314 6.88635 17.2H8.38635C8.38635 15.4934 6.56035 14.4084 5.06142 15.2243L5.77858 16.5418ZM14.1136 17.2C14.1136 16.6314 14.722 16.2699 15.2214 16.5417L15.9386 15.2243C14.4397 14.4083 12.6136 15.4934 12.6136 17.2H14.1136ZM18.9037 10.603C18.426 10.3429 18.426 9.65706 18.9037 9.397L18.1866 8.07955C16.665 8.9078 16.665 11.0922 18.1866 11.9204L18.9037 10.603ZM5.06142 4.77569C6.56035 5.59165 8.38635 4.50663 8.38635 2.8H6.88635C6.88635 3.3686 6.27798 3.7301 5.77858 3.45824L5.06142 4.77569ZM15.2214 3.45825C14.722 3.73011 14.1136 3.36861 14.1136 2.8H12.6136C12.6136 4.50663 14.4397 5.59166 15.9386 4.7757L15.2214 3.45825ZM12.75 10C12.75 11.2426 11.7426 12.25 10.5 12.25V13.75C12.5711 13.75 14.25 12.0711 14.25 10H12.75ZM10.5 12.25C9.25737 12.25 8.25001 11.2426 8.25001 10H6.75001C6.75001 12.0711 8.42894 13.75 10.5 13.75V12.25ZM8.25001 10C8.25001 8.75736 9.25737 7.75 10.5 7.75V6.25C8.42894 6.25 6.75001 7.92893 6.75001 10H8.25001ZM10.5 7.75C11.7426 7.75 12.75 8.75736 12.75 10H14.25C14.25 7.92893 12.5711 6.25 10.5 6.25V7.75Z" fill="#28303F"/>
</svg>
